<?xml version="1.0" encoding="UTF-8" standalone="no"?>
<!-- Created with Inkscape (http://www.inkscape.org/) -->

<svg
   width="64mm"
   height="17mm"
   viewBox="0 0 64 17"
   version="1.1"
   id="svg1"
   xml:space="preserve"
   xmlns="http://www.w3.org/2000/svg"
   xmlns:svg="http://www.w3.org/2000/svg"><defs
     id="defs1" /><g
     id="layer1"><g
       transform="matrix(0.03527781,0,0,-0.03527778,-5.6033003,21.958284)"
       fill="#000000"
       stroke="none"
       id="g5"
       style="fill:#ffffff;fill-opacity:1"><path
         d="M 285,606 C 179,560 149,413 226,321 c 68,-81 212,-74 264,12 32,51 27,67 -20,67 -32,0 -46,-6 -64,-27 -45,-52 -120,-25 -132,48 -15,93 77,155 134,89 11,-14 29,-20 59,-20 50,0 54,11 20,61 -41,62 -130,86 -202,55 z"
         id="path1"
         style="fill:#ffffff;fill-opacity:1" /><path
         d="m 639,604 c -35,-15 -69,-58 -69,-88 0,-25 71,-22 93,4 11,14 29,20 55,20 67,0 87,-45 25,-55 -147,-24 -183,-47 -183,-118 0,-57 33,-93 94,-102 39,-6 67,1 129,33 4,2 7,-3 7,-12 0,-12 10,-16 43,-16 h 42 l -5,133 c -4,106 -9,139 -23,161 -35,53 -132,72 -208,40 z M 780,402 c 0,-47 -68,-85 -111,-62 -38,21 -19,63 31,73 58,10 80,7 80,-11 z"
         id="path2"
         style="fill:#ffffff;fill-opacity:1" /><path
         d="m 1073,601 c -27,-17 -33,-18 -33,-6 0,11 -12,15 -45,15 H 950 V 375 140 h 45 45 v 79 80 l 46,-20 c 118,-53 224,40 212,186 -7,88 -61,145 -145,152 -36,3 -56,-1 -80,-16 z m 109,-91 c 27,-28 30,-36 25,-77 -6,-57 -34,-87 -82,-87 -48,0 -76,30 -82,87 -5,41 -2,49 25,77 19,18 41,30 57,30 16,0 38,-12 57,-30 z"
         id="path3"
         style="fill:#ffffff;fill-opacity:1" /><path
         d="m 1450,609 c -34,-14 -68,-47 -88,-84 -20,-39 -20,-131 1,-172 60,-115 234,-119 300,-5 l 19,32 h -51 c -28,0 -51,-4 -51,-8 0,-11 -46,-32 -69,-32 -24,0 -71,37 -71,56 0,11 23,14 121,14 h 121 l -4,55 c -5,59 -24,94 -71,129 -30,22 -119,31 -157,15 z m 123,-91 c 9,-11 17,-24 17,-29 0,-5 -34,-9 -75,-9 -79,0 -94,11 -57,42 37,33 85,32 115,-4 z"
         id="path4"
         style="fill:#ffffff;fill-opacity:1" /><path
         d="m 1827,460 c -26,-88 -50,-167 -53,-175 -5,-12 3,-15 45,-15 h 50 l 20,68 c 11,37 34,112 51,167 16,55 30,103 30,108 0,4 -22,7 -48,7 h -48 z"
         id="path5"
         style="fill:#ffffff;fill-opacity:1" /></g></g></svg>
