<svg xmlns="http://www.w3.org/2000/svg" width="145.261" height="56" viewBox="0 0 145.261 56">
  <g id="logo2" transform="translate(-792.806 -258.192)">
    <g id="Rectangle_137" data-name="Rectangle 137" transform="translate(799.806 269.927)" fill="#fff" stroke="#707070" stroke-width="1">
      <rect width="129" height="32.22" stroke="none"/>
      <rect x="0.5" y="0.5" width="128" height="31.22" fill="none"/>
    </g>
    <path id="Path_1" data-name="Path 1" d="M903.8,290.7h-4.283a5.591,5.591,0,0,0-1.077,1.107v8.74a5.315,5.315,0,0,0,1.048,1.078h4.282a7.479,7.479,0,0,0,1.078-1.078v-8.769A4.114,4.114,0,0,0,903.8,290.7Z" transform="translate(-30.899 -9.901)" fill="#8ed2e6"/>
    <path id="Path_2" data-name="Path 2" d="M881.445,290.868h-4.952v3.991h4.952a2.233,2.233,0,0,0,.758-.7v-2.593A2.206,2.206,0,0,0,881.445,290.868Z" transform="translate(-24.48 -9.9)" fill="#8ed2e6"/>
    <path id="Path_3" data-name="Path 3" d="M943.321,298.878h3.933l-1.981-5.622C944.632,295.12,943.962,297.014,943.321,298.878Z" transform="translate(-44.028 -10.635)" fill="#8ed2e6"/>
    <path id="Path_4" data-name="Path 4" d="M969.708,300.709h-4.894v3.7h4.923a1.95,1.95,0,0,0,.757-.757v-2.127A2.249,2.249,0,0,0,969.708,300.709Z" transform="translate(-50.315 -12.879)" fill="#8ed2e6"/>
    <path id="Path_5" data-name="Path 5" d="M927.317,263.493v-5.3h-10.75v5.3H814.3v-5.3h-10.75v5.3H792.806V309h21.5v5.189h10.749V309h80.764v5.189h10.75V309h21.5v-45.51Zm-104.71,31.376h-3.554V284.5c-.99,2.1-2.04,4.195-3.03,6.264h-2.33l-3-6.235v10.343h-3.554V277.63h3.874l3.9,7.815c1.281-2.585,2.563-5.258,3.845-7.815h3.845Zm7.37,0h-3.583V277.63h3.583Zm15.359-2.3c-.7.98-2.074,2.448-3.856,2.448h-3.827a4.075,4.075,0,0,1-1.928-.547,11.108,11.108,0,0,1-2.132-2.074,3.374,3.374,0,0,1-.5-1.786v-8.73a3.017,3.017,0,0,1,.5-1.786,11.372,11.372,0,0,1,2.161-2.074,4.2,4.2,0,0,1,1.9-.547h3.827c1.782,0,3.126,1.47,3.827,2.42a7.623,7.623,0,0,1,.993,1.844l-3.3.922a4.013,4.013,0,0,0-1.548-1.815H837.8a5.4,5.4,0,0,0-1.14,1.152v8.586a3.467,3.467,0,0,0,1.14,1.066h3.709a4.852,4.852,0,0,0,1.49-1.728l3.33.807A7.377,7.377,0,0,1,845.337,292.565Zm12.94,2.3-3.467-6.579h-2.8v6.579H848.46V277.63h8.506a4.066,4.066,0,0,1,2.185.661,13.474,13.474,0,0,1,1.573,1.58,3.363,3.363,0,0,1,.553,1.9v2.442a3.207,3.207,0,0,1-.553,1.867,8.892,8.892,0,0,1-1.573,1.552,4.374,4.374,0,0,1-.7.4c1.428,2.586,3.787,6.838,3.787,6.838Zm19.227-4.281a3.07,3.07,0,0,1-.5,1.781,11.237,11.237,0,0,1-2.127,2.1,4.069,4.069,0,0,1-1.923.546h-4.427a3.973,3.973,0,0,1-1.923-.546,10.436,10.436,0,0,1-2.127-2.1,3.071,3.071,0,0,1-.5-1.781V281.94a3.1,3.1,0,0,1,.5-1.81,11.1,11.1,0,0,1,2.127-2.069,3.966,3.966,0,0,1,1.923-.546h4.427a4.062,4.062,0,0,1,1.923.546,12.015,12.015,0,0,1,2.127,2.069,3.1,3.1,0,0,1,.5,1.81Zm14.624,4.281h-11.3V277.63h3.554v13.849h7.749Zm13.342,0-1.165-3.3h-6.089c-.379,1.063-.816,2.241-1.194,3.3h-3.787l6.06-17.239h3.933l6.03,17.239Zm18.265-11a3.367,3.367,0,0,1-.962,2.413,3.255,3.255,0,0,1,.962,2.414v2.069a3.244,3.244,0,0,1-.524,1.867,9.865,9.865,0,0,1-1.544,1.58,4.248,4.248,0,0,1-2.214.661h-8.506V277.63h8.506a4.107,4.107,0,0,1,2.214.69,11.108,11.108,0,0,1,1.544,1.551,3.443,3.443,0,0,1,.524,1.925Z" transform="translate(0)" fill="#8ed2e6"/>
    <path id="Path_6" data-name="Path 6" d="M969.708,290.868h-4.894v3.67h4.923a2.07,2.07,0,0,0,.757-.728v-2.127A2.25,2.25,0,0,0,969.708,290.868Z" transform="translate(-50.315 -9.898)" fill="#8ed2e6"/>
  </g>
</svg>
