<svg width="256" height="256" viewBox="0 0 256 256" fill="none" xmlns="http://www.w3.org/2000/svg">
<g clip-path="url(#clip0_2402_4)">
<path d="M196 0H60C26.8629 0 0 26.8629 0 60V196C0 229.137 26.8629 256 60 256H196C229.137 256 256 229.137 256 196V60C256 26.8629 229.137 0 196 0Z" fill="#242938"/>
<path d="M190.616 65.944C197.426 67.5283 203.614 71.0943 208.4 76.192C211.036 78.9509 213.325 82.0217 215.216 85.336C215.304 85.696 202.944 94 195.448 98.632C195.176 98.816 194.096 97.64 192.872 95.832C191.503 93.4782 189.559 91.5098 187.223 90.1108C184.886 88.7118 182.234 87.9278 179.512 87.832C170.896 87.24 165.344 91.752 165.384 99.296C165.31 101.149 165.732 102.989 166.608 104.624C168.504 108.544 172.024 110.896 183.08 115.688C203.432 124.448 212.168 130.224 217.56 138.432C220.608 143.618 222.485 149.408 223.06 155.396C223.635 161.384 222.893 167.425 220.888 173.096C218.132 179.315 213.761 184.684 208.23 188.644C202.698 192.604 196.208 195.011 189.432 195.616C182.23 196.442 174.952 196.367 167.768 195.392C156.764 193.584 146.627 188.302 138.84 180.32C135.898 177.007 133.407 173.319 131.432 169.352C132.262 168.734 133.137 168.178 134.048 167.688C135.312 166.968 140.096 164.216 144.608 161.6L152.8 156.8L154.512 159.296C157.396 163.42 161.066 166.932 165.312 169.632C169.6 171.984 174.458 173.099 179.342 172.852C184.227 172.604 188.947 171.005 192.976 168.232C195.054 166.206 196.353 163.514 196.646 160.627C196.939 157.739 196.206 154.841 194.576 152.44C192.368 149.28 187.856 146.624 175.032 141.064C164.976 137.673 155.818 132.053 148.24 124.624C144.631 120.512 141.966 115.66 140.432 110.408C139.297 104.425 139.13 98.2996 139.936 92.264C141.441 85.3188 145.046 79.0042 150.26 74.176C155.475 69.3478 162.048 66.2394 169.088 65.272C176.257 64.4154 183.514 64.6419 190.616 65.944ZM123.872 77.808L123.96 89.44H86.9201V194.624H60.8001V89.464H23.7601V78.04C23.6616 74.1278 23.7684 70.2131 24.0801 66.312C24.2161 66.128 46.7361 66.04 74.0401 66.088L123.728 66.224L123.872 77.808Z" fill="#007ACC"/>
</g>
<defs>
<clipPath id="clip0_2402_4">
<rect width="256" height="256" fill="white"/>
</clipPath>
</defs>
</svg>
